# xmcd CD database file
#
# Track frame offsets:
#	150
#	18672
#	34140
#
# Disc length: 698 seconds
#
# Revision: 0
# Processed by: cddbd v1.5.1PL0 Copyright (c) Steve Scherf et al.
# Submitted via: CDex 1.51
#
DISCID=1e02b803
DTITLE=村下孝蔵 - 初恋／ゆうこ／アキナ
DYEAR=1900
DGENRE=J-POP
TTITLE0=初恋
TTITLE1=ゆうこ
TTITLE2=アキナ
EXTD=
EXTT0=
EXTT1=
EXTT2=
PLAYORDER=
